<svg width="24" height="24" viewBox="0 0 24 24" fill="none" xmlns="http://www.w3.org/2000/svg">
<path d="M11.9997 0C5.3726 0 0.00012207 5.37288 0.00012207 11.9998C0.00012207 18.6266 5.3726 24 11.9997 24C18.6268 24 24 18.627 24 11.9998C24 5.37256 18.6268 0 11.9997 0ZM17.7042 8.6356L16.5644 9.77536L14.2444 7.45544L13.3642 8.3356L15.6843 10.6557L9.99372 16.3458L7.6738 14.0261L6.79364 14.9062L9.11356 17.2262L8.54652 17.7932L8.53572 17.7824C8.47284 17.8859 8.3706 17.9614 8.24916 17.9884L6.08572 18.4708C6.05332 18.4781 6.02036 18.4816 5.9878 18.4816C5.86972 18.4816 5.755 18.4351 5.66996 18.3498C5.56084 18.2411 5.5154 18.0841 5.549 17.9336L6.03116 15.7708C6.05836 15.6494 6.13404 15.547 6.2374 15.4842L6.22644 15.4733L15.384 6.31528C15.5183 6.18128 15.7364 6.18128 15.8706 6.31568L17.7044 8.14904C17.8386 8.28328 17.8386 8.50136 17.7042 8.6356Z" fill="#4DA8DA"/>
</svg>
