<svg width="32" height="32" viewBox="0 0 32 32" fill="none" xmlns="http://www.w3.org/2000/svg">
<g clip-path="url(#clip0_15_527)">
<path d="M16 0C7.17775 0 0 7.17775 0 16C0 24.8222 7.17775 32 16 32C19.0312 32 21.9824 31.1475 24.5341 29.5362L23.4658 27.8448C21.2343 29.2549 18.6523 30.0001 16 30.0001C8.28032 30.0001 1.99999 23.7198 1.99999 16.0001C1.99999 8.28032 8.28025 1.99999 16 1.99999C23.7197 1.99999 30 8.28025 30 16V17C30 18.6543 28.6543 20 27 20C25.3457 20 24 18.6543 24 17V10H22V10.7648C20.5324 9.08483 18.4006 8.00003 16 8.00003C11.5889 8.00003 8.00003 11.5889 8.00003 16C8.00003 20.4111 11.5889 24 16 24C18.9887 24 21.5687 22.3334 22.942 19.8989C23.85 21.1657 25.326 22 27 22C29.7568 22 32 19.7568 32 17V15.9999C32 7.17775 24.8222 0 16 0V0ZM16 22C12.6914 22 10 19.3086 10 16C10 12.6914 12.6914 10 16 10C19.3086 10 22 12.6914 22 16C22 19.3086 19.3086 22 16 22Z" fill="#EEFBFB"/>
</g>
<defs>
<clipPath id="clip0_15_527">
<rect width="32" height="32" fill="white"/>
</clipPath>
</defs>
</svg>
