<svg width="32" height="32" viewBox="0 0 32 32" fill="none" xmlns="http://www.w3.org/2000/svg">
<g clip-path="url(#clip0_15_505)">
<path d="M7.17163 8.97278H12.06V11.0252H7.17163V8.97278Z" fill="#EEFBFB"/>
<path d="M7.17163 13.6399H12.06V15.6924H7.17163V13.6399Z" fill="#EEFBFB"/>
<path d="M7.17163 18.307H12.06V20.3595H7.17163V18.307Z" fill="#EEFBFB"/>
<path d="M7.17163 22.9742H12.06V25.0266H7.17163V22.9742Z" fill="#EEFBFB"/>
<path d="M17.0571 27.7595V10.9891L27.7744 10.9766V22.29H29.8256V9.94919C29.8256 9.38933 29.3579 8.92294 28.7988 8.92294L16.0302 8.93784C15.4643 8.93853 15.0058 9.39774 15.0058 9.9641V27.7595H4.22564V7.4521L15.0058 4.55206V6.88198H17.0571V3.21347C17.0571 2.54953 16.4068 2.04984 15.7651 2.22242L2.93368 5.67425C2.48574 5.7948 2.17436 6.20116 2.17436 6.6653V27.7595H0V29.812H32V27.7595H17.0571Z" fill="#EEFBFB"/>
<path d="M27.7744 24.1373H29.8257V26.0492H27.7744V24.1373Z" fill="#EEFBFB"/>
<path d="M19.9402 13.6399H24.8285V15.6924H19.9402V13.6399Z" fill="#EEFBFB"/>
<path d="M19.9402 18.307H24.8285V20.3595H19.9402V18.307Z" fill="#EEFBFB"/>
<path d="M19.9402 22.9742H24.8285V25.0266H19.9402V22.9742Z" fill="#EEFBFB"/>
</g>
<defs>
<clipPath id="clip0_15_505">
<rect width="32" height="32" fill="white"/>
</clipPath>
</defs>
</svg>
