<svg width="32" height="32" viewBox="0 0 32 32" fill="none" xmlns="http://www.w3.org/2000/svg">
<g clip-path="url(#clip0_15_501)">
<path d="M27.5603 4.92434C24.5401 1.77183 20.3612 -0.00729645 15.9954 0.000736619C7.17254 -0.0103758 0.0111251 7.13296 1.26662e-05 15.9559C-0.0054766 20.3185 1.77345 24.4936 4.92362 27.5117C4.93279 27.5208 4.9362 27.5345 4.9453 27.5425C5.03782 27.6316 5.13837 27.7071 5.23209 27.7927C5.48914 28.0212 5.7462 28.2577 6.01698 28.4782C6.16205 28.5925 6.31287 28.7067 6.46141 28.8118C6.71733 29.0026 6.97325 29.1934 7.24055 29.3694C7.42224 29.4836 7.60961 29.5978 7.79577 29.7121C8.04252 29.8607 8.2882 30.0103 8.54298 30.1462C8.75894 30.2605 8.97938 30.3587 9.19875 30.4627C9.43867 30.5769 9.67518 30.6911 9.92079 30.794C10.1664 30.8968 10.4132 30.9768 10.6622 31.0659C10.9113 31.155 11.1261 31.2373 11.3649 31.3104C11.6345 31.3915 11.911 31.4543 12.1852 31.5217C12.4136 31.5777 12.6353 31.6417 12.8707 31.6874C13.186 31.7502 13.5059 31.7902 13.8258 31.8336C14.0235 31.8611 14.2165 31.8999 14.4164 31.9193C14.9397 31.9707 15.4675 31.9993 15.9999 31.9993C16.5323 31.9993 17.0601 31.9707 17.5833 31.9193C17.7833 31.8999 17.9763 31.8611 18.174 31.8336C18.4939 31.7902 18.8137 31.7502 19.1291 31.6874C19.3576 31.6417 19.5861 31.5731 19.8146 31.5217C20.0888 31.4543 20.3653 31.3914 20.6349 31.3104C20.8737 31.2373 21.1044 31.1482 21.3375 31.0659C21.5706 30.9836 21.8356 30.8945 22.079 30.794C22.3223 30.6934 22.5611 30.5757 22.801 30.4627C23.0204 30.3587 23.2409 30.2604 23.4568 30.1462C23.7116 30.0103 23.9572 29.8606 24.204 29.7121C24.3902 29.5978 24.5776 29.4939 24.7592 29.3694C25.0266 29.1934 25.2825 29.0027 25.5383 28.8118C25.6869 28.6975 25.8376 28.5947 25.9828 28.4782C26.2536 28.2611 26.5106 28.0304 26.7677 27.7927C26.8613 27.7071 26.9619 27.6317 27.0545 27.5425C27.0636 27.5346 27.067 27.5208 27.0761 27.5117C33.4473 21.408 33.664 11.2953 27.5603 4.92434ZM24.9925 26.3155C24.7846 26.4983 24.5698 26.6719 24.3527 26.8399C24.2248 26.9382 24.0968 27.0352 23.9654 27.1289C23.7586 27.2786 23.5484 27.4203 23.3347 27.5562C23.1794 27.6556 23.0206 27.7516 22.8606 27.8453C22.6595 27.9596 22.455 28.0738 22.2482 28.188C22.0654 28.2817 21.8791 28.3697 21.6918 28.4565C21.5045 28.5434 21.2977 28.6359 21.0955 28.717C20.8932 28.7982 20.6785 28.8747 20.4671 28.9455C20.274 29.0118 20.0809 29.0803 19.8855 29.1386C19.6571 29.2071 19.4183 29.2631 19.1818 29.3202C18.9967 29.3636 18.8139 29.4127 18.6266 29.4494C18.3558 29.5019 18.0793 29.5385 17.8017 29.5762C17.644 29.5967 17.4875 29.6253 17.3287 29.6413C16.8899 29.6835 16.4455 29.7087 15.9965 29.7087C15.5476 29.7087 15.1031 29.6836 14.6644 29.6413C14.5056 29.6253 14.3491 29.5967 14.1914 29.5762C13.9138 29.5385 13.6373 29.5019 13.3665 29.4494C13.1791 29.4128 12.9963 29.3637 12.8113 29.3202C12.5748 29.2631 12.3394 29.206 12.1075 29.1386C11.9122 29.0803 11.7191 29.0118 11.526 28.9455C11.3147 28.8724 11.1033 28.7981 10.8976 28.717C10.692 28.6359 10.4978 28.5468 10.3012 28.4565C10.1047 28.3663 9.92762 28.2818 9.74486 28.188C9.53808 28.0807 9.33357 27.9675 9.13248 27.8453C8.97255 27.7516 8.8137 27.6556 8.65832 27.5562C8.44471 27.4203 8.23445 27.2786 8.02766 27.1289C7.89625 27.0353 7.76833 26.9382 7.64033 26.8399C7.42324 26.6719 7.20849 26.4971 7.00057 26.3155C6.95029 26.2778 6.90457 26.2298 6.8555 26.1863C6.90658 22.2999 9.40332 18.8681 13.0855 17.6234C14.9266 18.4992 17.0642 18.4992 18.9053 17.6234C22.5874 18.8681 25.0841 22.2998 25.1353 26.1863C25.0873 26.2298 25.0416 26.2732 24.9925 26.3155ZM12.0115 9.16098C13.2485 6.96099 16.0347 6.18038 18.2347 7.4174C20.4347 8.65443 21.2153 11.4406 19.9783 13.6406C19.5678 14.3706 18.9647 14.9737 18.2347 15.3842C18.229 15.3842 18.2221 15.3842 18.2153 15.391C17.9123 15.5597 17.5921 15.6953 17.2601 15.7955C17.2008 15.8126 17.1459 15.8355 17.0831 15.8503C16.9688 15.88 16.8488 15.9006 16.7312 15.9211C16.5096 15.9599 16.2854 15.9824 16.0605 15.9886H15.9303C15.7054 15.9824 15.4812 15.9599 15.2596 15.9211C15.1454 15.9006 15.0243 15.88 14.9078 15.8503C14.8472 15.8355 14.7935 15.8126 14.7307 15.7955C14.3988 15.6953 14.0786 15.5597 13.7756 15.391L13.755 15.3842C11.555 14.1472 10.7744 11.361 12.0115 9.16098ZM27.162 23.9209C26.4289 20.5013 24.1771 17.6022 21.0452 16.0458C23.6054 13.2569 23.42 8.92059 20.6311 6.36038C17.8422 3.80018 13.5059 3.98561 10.9457 6.77449C8.53883 9.39635 8.53883 13.424 10.9457 16.0458C7.81378 17.6023 5.56198 20.5013 4.82883 23.9209C0.447857 17.7499 1.8989 9.19592 8.06983 4.81496C14.2408 0.433987 22.7948 1.88503 27.1758 8.05596C28.8226 10.3757 29.7066 13.1505 29.7052 15.9954C29.7052 18.8379 28.816 21.6091 27.162 23.9209Z" fill="#EEFBFB"/>
</g>
<defs>
<clipPath id="clip0_15_501">
<rect width="32" height="32" fill="white"/>
</clipPath>
</defs>
</svg>
