<svg width="32" height="32" viewBox="0 0 32 32" fill="none" xmlns="http://www.w3.org/2000/svg">
<path d="M7.41117 12.5351C7.65111 12.5351 7.89104 12.4436 8.07404 12.2605L12.7182 7.61631C13.0844 7.25019 13.0844 6.65663 12.7182 6.2905C12.3522 5.92438 11.7585 5.92438 11.3924 6.2905L7.41111 10.2718L5.54523 8.40588C5.17917 8.03975 4.58554 8.03975 4.21942 8.40588C3.85329 8.772 3.85329 9.36556 4.21942 9.73169L6.74817 12.2604C6.93129 12.4436 7.17123 12.5351 7.41117 12.5351V12.5351Z" fill="#EEFBFB"/>
<path d="M31.0625 1.20731H0.9375C0.41975 1.20731 0 1.62706 0 2.14481V15.9928C0 16.5106 0.41975 16.9303 0.9375 16.9303H5.43906V29.8552C5.43906 30.3729 5.85881 30.7927 6.37656 30.7927H10.3438C10.8615 30.7927 11.2812 30.3729 11.2812 29.8552V16.9303H20.722V29.8552C20.722 30.3729 21.1418 30.7927 21.6595 30.7927H25.4062C25.924 30.7927 26.3438 30.3729 26.3438 29.8552V16.9303H31.0625C31.5803 16.9303 32 16.5106 32 15.9928V2.14481C32 1.62706 31.5803 1.20731 31.0625 1.20731V1.20731ZM1.875 3.08231H15.0625V15.0553H1.875V3.08231ZM9.40625 28.9177H7.31406V16.9303H9.40625V28.9177ZM24.4688 28.9177H22.597V16.9303H24.4688V28.9177ZM30.125 15.0553H16.9375V3.08231H30.125V15.0553Z" fill="#EEFBFB"/>
<path d="M20.5463 12.2605C20.9124 12.6266 21.5061 12.6266 21.8721 12.2605L23.5313 10.6013L25.1905 12.2605C25.5566 12.6266 26.1502 12.6266 26.5163 12.2605C26.8824 11.8944 26.8824 11.3008 26.5163 10.9347L24.8571 9.2755L26.5163 7.61631C26.8824 7.25019 26.8824 6.65663 26.5163 6.2905C26.1503 5.92438 25.5566 5.92438 25.1905 6.2905L23.5313 7.94969L21.8721 6.2905C21.506 5.92438 20.9124 5.92438 20.5463 6.2905C20.1802 6.65656 20.1802 7.25019 20.5463 7.61631L22.2055 9.2755L20.5463 10.9347C20.1802 11.3008 20.1802 11.8944 20.5463 12.2605Z" fill="#EEFBFB"/>
</svg>
